<svg id="Agrupar_1" data-name="Agrupar 1" xmlns="http://www.w3.org/2000/svg" xmlns:xlink="http://www.w3.org/1999/xlink" width="336" height="72" viewBox="0 0 336 72">
  <metadata><?xpacket begin="﻿" id="W5M0MpCehiHzreSzNTczkc9d"?>
<x:xmpmeta xmlns:x="adobe:ns:meta/" x:xmptk="Adobe XMP Core 5.6-c142 79.160924, 2017/07/13-01:06:39        ">
   <rdf:RDF xmlns:rdf="http://www.w3.org/1999/02/22-rdf-syntax-ns#">
      <rdf:Description rdf:about=""/>
   </rdf:RDF>
</x:xmpmeta>
                                                                                                    
                                                                                                    
                                                                                                    
                                                                                                    
                                                                                                    
                                                                                                    
                                                                                                    
                                                                                                    
                                                                                                    
                                                                                                    
                                                                                                    
                                                                                                    
                                                                                                    
                                                                                                    
                                                                                                    
                                                                                                    
                                                                                                    
                                                                                                    
                                                                                                    
                                                                                                    
                           
<?xpacket end="w"?></metadata>
<defs>
    <style>
      .cls-1, .cls-8 {
        fill: none;
      }

      .cls-1 {
        stroke: #dadada;
      }

      .cls-1, .cls-4, .cls-8 {
        stroke-width: 1px;
      }

      .cls-2 {
        fill: #dadada;
      }

      .cls-2, .cls-9 {
        opacity: 0.5;
      }

      .cls-3 {
        fill: #f4eaea;
      }

      .cls-20, .cls-3, .cls-4 {
        opacity: 0.75;
      }

      .cls-4 {
        fill: #7c7c7c;
      }

      .cls-4, .cls-8 {
        stroke: #fff;
      }

      .cls-21, .cls-24, .cls-25, .cls-27, .cls-5 {
        font-size: 18px;
      }

      .cls-11, .cls-20, .cls-29, .cls-5, .cls-6, .cls-7 {
        fill: #fff;
      }

      .cls-21, .cls-24, .cls-27, .cls-30, .cls-5 {
        text-anchor: middle;
      }

      .cls-21, .cls-24, .cls-26, .cls-30, .cls-5, .cls-6 {
        font-family: "Playfair Display";
      }

      .cls-21, .cls-24, .cls-30, .cls-5, .cls-6 {
        font-style: italic;
      }

      .cls-6 {
        font-size: 51px;
      }

      .cls-21, .cls-26, .cls-6 {
        font-weight: 700;
      }

      .cls-7 {
        font-size: 13px;
      }

      .cls-10, .cls-16, .cls-22, .cls-25, .cls-7 {
        font-family: "Century Gothic";
        text-transform: uppercase;
      }

      .cls-19, .cls-8 {
        opacity: 0.25;
      }

      .cls-13, .cls-9 {
        fill: #d2bdbd;
      }

      .cls-10, .cls-18, .cls-22 {
        font-size: 12px;
      }

      .cls-10, .cls-16 {
        fill: #837a7a;
      }

      .cls-11 {
        filter: url(#filter);
      }

      .cls-12, .cls-19 {
        fill: #c5bcba;
      }

      .cls-12, .cls-13, .cls-14 {
        fill-rule: evenodd;
      }

      .cls-14, .cls-22, .cls-25 {
        fill: #8d7c7a;
      }

      .cls-15 {
        font-size: 11px;
      }

      .cls-17, .cls-27 {
        font-family: Montserrat;
      }

      .cls-17 {
        font-weight: 200;
      }

      .cls-21 {
        fill: #5b5b5b;
      }

      .cls-23, .cls-24 {
        fill: #dad4d9;
      }

      .cls-26 {
        font-size: 36px;
      }

      .cls-26, .cls-27, .cls-30 {
        fill: #868388;
      }

      .cls-28 {
        fill: #0a0605;
        opacity: 0.2;
      }

      .cls-30 {
        font-size: 22px;
      }

      .cls-31 {
        fill: #f8f8f8;
      }
    </style>
    <filter id="filter" x="-118" y="-139" width="1392" height="82" filterUnits="userSpaceOnUse">
      <feOffset result="offset" dy="4" in="SourceAlpha"/>
      <feGaussianBlur result="blur" stdDeviation="1.414"/>
      <feFlood result="flood" flood-color="#0f0d0f" flood-opacity="0.06"/>
      <feComposite result="composite" operator="in" in2="blur"/>
      <feBlend result="blend" in="SourceGraphic"/>
    </filter>
  </defs>
  <rect id="Retângulo_16" data-name="Retângulo 16" class="cls-1" x="800" y="929" width="381" height="404"/>
  <rect id="Retângulo_15" data-name="Retângulo 15" class="cls-2" x="418" y="-8" width="728" height="90"/>
  <rect id="Retângulo_6_copiar" data-name="Retângulo 6 copiar" class="cls-3" x="-146" y="289" width="1447" height="360"/>
  <rect id="Retângulo_12" data-name="Retângulo 12" class="cls-4" x="-129" y="649" width="1430" height="198"/>
  <text id="ok_" data-name="ok!" class="cls-5" x="1027.501" y="758.002"><tspan x="1027.501">ok!</tspan></text>
  <text id="Newsletter" class="cls-6" x="98.5" y="781.999">Newsletter</text>
  <text id="rECEBA_DICAS_E_NOVIDADES" data-name="rECEBA DICAS E NOVIDADES" class="cls-7" x="104.5" y="730.001">rECEBA DICAS E NOVIDADES</text>
  <rect id="Retângulo_13" data-name="Retângulo 13" class="cls-8" x="-123" y="665" width="1429" height="167"/>
  <rect id="Retângulo_10" data-name="Retângulo 10" class="cls-9" x="96" y="133" width="140" height="52"/>
  <text id="DESIGN" class="cls-10" x="135.5" y="155">DESIGN</text>
  <rect id="Retângulo_10_copiar" data-name="Retângulo 10 copiar" class="cls-9" x="528" y="133" width="140" height="52"/>
  <text id="DICAS" class="cls-10" x="573.502" y="153">DICAS</text>
  <rect id="Retângulo_10_copiar_2" data-name="Retângulo 10 copiar 2" class="cls-9" x="979" y="133" width="84" height="52"/>
  <text id="DIY" class="cls-10" x="1007.499" y="155">DIY</text>
  <rect id="Retângulo_1" data-name="Retângulo 1" class="cls-11" x="-117" y="-139" width="1389" height="76"/>
  <path id="acasadelilith" class="cls-12" d="M202.75,12.152h14.6v4.661h-9.407V26.23h7.595v4.661h-7.595v9.892h9.407v4.661h-14.6V12.152ZM189.082,45.444h-7.447V12.152h7.447c5.586,0,8.623,2.949,8.623,8.418V37.026C197.705,42.495,194.668,45.444,189.082,45.444Zm3.43-24.54c0-2.806-1.127-4.09-3.626-4.09h-2.058v23.97h2.058c2.5,0,3.626-1.284,3.626-4.09V20.9ZM171.5,37.882h-5.733l-1.126,7.562h-5.194l5.928-33.291h6.615l5.929,33.291h-5.292Zm-2.793-18.6h-0.147l-2.107,14.03h4.361ZM150.087,45.919c-5.145,0-8.036-2.711-8.036-7.467V36.217l5-.476V38.12q0,3.139,2.94,3.139t2.94-3.139V37.026c0-2.092-1.029-3.757-4.508-6.611-4.753-3.9-6.37-6.658-6.37-10.558V19.144c0-4.756,2.793-7.467,7.742-7.467s7.741,2.711,7.741,7.467V20l-5,.476V19.239c0-1.9-.931-2.9-2.646-2.9s-2.646,1-2.646,2.9v0.428c0,1.95.882,3.614,4.361,6.468,4.752,3.9,6.516,6.658,6.516,10.653v1.665C158.122,43.208,155.231,45.919,150.087,45.919Zm-16.558-8.037H127.8l-1.127,7.562h-5.194L127.4,12.152h6.615l5.929,33.291h-5.292Zm-2.793-18.6h-0.147l-2.106,14.03h4.36ZM110.944,45.919c-5.046,0-7.986-2.949-7.986-7.99V19.667c0-5.041,2.94-7.99,7.986-7.99,5.1,0,8.085,2.949,8.085,7.99v3l-5,.238V20.19c0-2.663-1.029-3.852-2.94-3.852s-2.94,1.189-2.94,3.377V37.882c0,2.188,1.029,3.377,2.94,3.377s2.94-1.189,2.94-3.852V33.7l5,0.238v3.995C119.029,42.971,116.04,45.919,110.944,45.919ZM93.6,37.882H87.869l-1.127,7.562H81.549l5.929-33.291h6.615l5.928,33.291H94.729Zm-2.793-18.6H90.662l-2.107,14.03h4.361Z"/>
  <path id="acasadelilith_copiar" data-name="acasadelilith copiar" class="cls-13" d="M306.314,45.444V30.938h-6.173V45.444h-5.194V12.152h5.194v14.03h6.173V12.152h5.194V45.444h-5.194Zm-20.184,0h-5.193V16.908H275.4V12.152h16.267v4.756H286.13V45.444Zm-19.2-33.291h5.193V45.444h-5.193V12.152Zm-17.2,0h5.194V40.688H263.6v4.756H249.73V12.152Zm-10.777,0h5.193V45.444h-5.193V12.152Zm-17.2,0h5.194V40.688h8.672v4.756H221.757V12.152Z"/>
  <path id="Forma_1" data-name="Forma 1" class="cls-12" d="M27,25.853s-6.457-.279-7.091-1.155A12.271,12.271,0,0,1,17.631,18.3a1.623,1.623,0,0,1,0-1.1,3.822,3.822,0,0,1-.258-2.012,2.577,2.577,0,0,1-.357-2.231s-0.951-2.111-.277-2.689c0,0,.337-1.872,5.744-0.4A19.894,19.894,0,0,1,30.129,14.2a31.712,31.712,0,0,1,6.892,8.306,1.041,1.041,0,0,1,.852-0.538,1.381,1.381,0,0,1,.119-0.618,12.778,12.778,0,0,0-2.04-3.087,41.306,41.306,0,0,0-3.426-3.824S32.387,14,32.8,14.3c0,0,2.872,3.366,3.011,3.486a18.974,18.974,0,0,1,2.4,3.585s0.119,0.258.3,0.119A8.534,8.534,0,0,1,40.19,18.9s2.654-2.529,2.753-2.788A10.181,10.181,0,0,1,44.31,14.7s0.436,0.04-.277.558c0,0-2,2.131-2.436,2.45,0,0-2.733,2.669-2.911,3.725,0,0,.277-0.02.258,0.139l0.02,0.558s0.456-.1.535,0.14c0,0,3.466-5,4.318-5.5,0,0,4.912-4.561,7.665-5.537,0,0,6.417-2.849,8.715-.279,0,0,.515.638-0.436,2.57a2.679,2.679,0,0,1-.376,2.231,2.926,2.926,0,0,1-.436,2.012S59.066,21.372,57.7,23a3.494,3.494,0,0,1-1.941,2.45,16.409,16.409,0,0,1-4.813.658s2.931,1.514,3.882,3.127a5.3,5.3,0,0,1,1.149,2.848,4.226,4.226,0,0,1-.079,2.868A4.025,4.025,0,0,1,54.807,37.7a4.261,4.261,0,0,1-2.238,3.486,4.166,4.166,0,0,1-3.506,2.291s-2.2,1.035-3.169.816c0,0-1.842.279-2.337-.577,0,0-2.5-2.829-2.634-5.458,0,0-.971-7.051-1.426-7.25,0,0-.178-0.4-0.258-0.14,0,0-.693,2.43-0.832,3.426a17.029,17.029,0,0,0-.2,3.9s0.277,0.379-.3,1.753c0,0,.119.856-0.456,0.8a1.6,1.6,0,0,1-.139-0.8s-0.337-.12-0.238-1.713c0,0,.356-2.928.634-3.008,0,0-.02-4.023-0.139-4.223,0,0-.475-0.657-0.436,1.594,0,0-.971,6.195-1.684,7.19a12.558,12.558,0,0,1-1.505,3.167,2.878,2.878,0,0,1-2.832,1.394,2.144,2.144,0,0,1-1.248-.3,2.449,2.449,0,0,1-1.723-.478s-2.614-.259-3.644-2.072c0,0-2.238-1.116-2.218-3.247a3.557,3.557,0,0,1-1.248-2.55s-0.832-.736-0.258-2.948a7.894,7.894,0,0,1,2.179-4.422A8.875,8.875,0,0,1,27,25.853Z"/>
  <path id="design_LIFESTYLE_blog" data-name="design &amp; LIFESTYLE blog" class="cls-14" d="M113.6,59.674a4.9,4.9,0,0,0,2.187-.4,3.083,3.083,0,0,0,1.268-1.232,3.751,3.751,0,0,0,.489-1.932,3.847,3.847,0,0,0-.616-2.19,3.269,3.269,0,0,0-1.712-1.291,8.2,8.2,0,0,0-2.45-.263h-1.561v7.306H113.6Zm-1.673-6.591h0.532a9.127,9.127,0,0,1,2.327.209,2.653,2.653,0,0,1,1.469,1.027,3.062,3.062,0,0,1,.527,1.806,2.908,2.908,0,0,1-.486,1.7,2.488,2.488,0,0,1-1.336.965,8.33,8.33,0,0,1-2.164.189H111.93v-5.9Zm10.433,6.591h4.282V58.959h-3.53V56.088h3.53V55.373h-3.53v-2.29h3.561V52.368h-4.313v7.306Zm9.216-.171a2.264,2.264,0,0,0,1.243.355,2.125,2.125,0,0,0,1.512-.586,1.839,1.839,0,0,0,.621-1.381,1.97,1.97,0,0,0-.363-1.1,5.4,5.4,0,0,0-1.34-1.247q-0.824-.591-0.972-0.73a1.7,1.7,0,0,1-.374-0.487,1.1,1.1,0,0,1-.1-0.462,0.865,0.865,0,0,1,.289-0.661,1.051,1.051,0,0,1,.744-0.268,1.279,1.279,0,0,1,.653.174,2.93,2.93,0,0,1,.724.72l0.613-.452a3.371,3.371,0,0,0-.979-0.941,2.028,2.028,0,0,0-1-.256,1.956,1.956,0,0,0-.929.226,1.651,1.651,0,0,0-.9,1.488,1.792,1.792,0,0,0,.4,1.118,6.542,6.542,0,0,0,1.172,1,6.049,6.049,0,0,1,1.289,1.172,1.213,1.213,0,0,1,.256.72,1.162,1.162,0,0,1-.174.611,1.235,1.235,0,0,1-.507.46,1.527,1.527,0,0,1-.711.171,1.9,1.9,0,0,1-1.56-1.207l-0.64.373A3.278,3.278,0,0,0,131.579,59.5Zm8.213,0.171h0.752V52.368h-0.752v7.306Zm11.441-7.155a4.835,4.835,0,0,0-1.8-.335,4.4,4.4,0,0,0-2.118.5,3.769,3.769,0,0,0-1.473,1.4,3.686,3.686,0,0,0-.537,1.932,3.608,3.608,0,0,0,.936,2.459,4.182,4.182,0,0,0,3.3,1.381,3.769,3.769,0,0,0,2.744-1,3.6,3.6,0,0,0,1.036-2.69h-3.243v0.705h2.4a2.494,2.494,0,0,1-.951,1.649,3.069,3.069,0,0,1-1.965.636,3.708,3.708,0,0,1-1.76-.425,3.193,3.193,0,0,1-1.258-1.167A2.948,2.948,0,0,1,146.091,56a2.894,2.894,0,0,1,.44-1.527,3.123,3.123,0,0,1,1.241-1.145,3.567,3.567,0,0,1,1.686-.422,3.8,3.8,0,0,1,1.46.31,4.453,4.453,0,0,1,1.379.912l0.583-.537A5.38,5.38,0,0,0,151.233,52.519Zm7.661,7.155V54.141l4.967,5.533h0.169V52.368h-0.742v5.6l-5.008-5.6h-0.164v7.306h0.778Zm21.32-1.966-0.747-.736-1.141-1.162a5.254,5.254,0,0,0,1.05-1.06,1.46,1.46,0,0,0,.267-0.782,1.18,1.18,0,0,0-.205-0.658,1.409,1.409,0,0,0-.593-0.494,1.99,1.99,0,0,0-.86-0.184,1.885,1.885,0,0,0-1.248.417,1.12,1.12,0,0,0-.435.9,1.454,1.454,0,0,0,.176.658,6.6,6.6,0,0,0,.795,1.07,6.5,6.5,0,0,0-1.45,1.389,2,2,0,0,0-.355,1.1,1.576,1.576,0,0,0,.527,1.21,1.983,1.983,0,0,0,1.4.484,3.471,3.471,0,0,0,1.243-.224,6.476,6.476,0,0,0,1.529-.959l1,1h1.049q-0.281-.319-0.67-0.7-0.495-.479-0.8-0.754a11.537,11.537,0,0,0,.933-0.729l-0.51-.524a11.711,11.711,0,0,1-.948.736h0Zm-3.062-3.369a0.715,0.715,0,0,1-.1-0.372,0.551,0.551,0,0,1,.251-0.447,1.059,1.059,0,0,1,.652-0.189,1.125,1.125,0,0,1,.674.184,0.53,0.53,0,0,1,.254.437,0.927,0.927,0,0,1-.194.5,3.719,3.719,0,0,1-.826.81,5.874,5.874,0,0,1-.708-0.924h0Zm1.3,2.626,1.187,1.187a6.378,6.378,0,0,1-1.386.86,2.034,2.034,0,0,1-.784.159,1.3,1.3,0,0,1-.892-0.321,0.96,0.96,0,0,1-.364-0.738,1.35,1.35,0,0,1,.3-0.768,6.037,6.037,0,0,1,1.257-1.116q0.378,0.422.685,0.735h0ZM193,59.674h3.648V58.969h-2.9v-6.6H193v7.306Zm8.085,0h0.752V52.368h-0.752v7.306Zm5.829,0h0.752V56.088h3.019V55.373H207.67v-2.29h3.019V52.368h-3.771v7.306Zm8.438,0h4.283V58.959h-3.531V56.088h3.531V55.373h-3.531v-2.29h3.561V52.368h-4.313v7.306Zm9.216-.171a2.267,2.267,0,0,0,1.243.355,2.121,2.121,0,0,0,1.512-.586,1.836,1.836,0,0,0,.622-1.381,1.97,1.97,0,0,0-.363-1.1,5.412,5.412,0,0,0-1.341-1.247q-0.824-.591-0.972-0.73a1.7,1.7,0,0,1-.373-0.487,1.087,1.087,0,0,1-.1-0.462,0.868,0.868,0,0,1,.289-0.661,1.052,1.052,0,0,1,.745-0.268,1.275,1.275,0,0,1,.652.174,2.9,2.9,0,0,1,.724.72l0.614-.452a3.373,3.373,0,0,0-.98-0.941,2.025,2.025,0,0,0-1-.256,1.952,1.952,0,0,0-.928.226,1.646,1.646,0,0,0-.9,1.488,1.792,1.792,0,0,0,.4,1.118,6.522,6.522,0,0,0,1.171,1,6.084,6.084,0,0,1,1.29,1.172,1.218,1.218,0,0,1,.255.72,1.162,1.162,0,0,1-.174.611,1.232,1.232,0,0,1-.506.46,1.532,1.532,0,0,1-.711.171,1.9,1.9,0,0,1-1.561-1.207l-0.639.373A3.276,3.276,0,0,0,224.572,59.5Zm9.252-6.42v6.591h0.767V53.083h1.678V52.368h-4.123v0.715h1.678Zm8.719,3.1v3.492h0.742V56.182l2.384-3.815H244.8l-1.9,3.013-1.925-3.013h-0.866Zm7.717,3.492h3.648V58.969h-2.9v-6.6H250.26v7.306Zm8.2,0h4.282V58.959h-3.53V56.088h3.53V55.373h-3.53v-2.29h3.561V52.368h-4.313v7.306Zm15.239,0h2.067a2.528,2.528,0,0,0,1.778-.608,1.945,1.945,0,0,0,.662-1.488,1.848,1.848,0,0,0-.176-0.8,1.816,1.816,0,0,0-.492-0.631,2.809,2.809,0,0,0-.9-0.455,1.788,1.788,0,0,0,.718-0.648,1.665,1.665,0,0,0,.244-0.887,1.7,1.7,0,0,0-.279-0.949,1.67,1.67,0,0,0-.759-0.633,3.621,3.621,0,0,0-1.376-.206H273.7v7.306Zm1.608-6.591a1.859,1.859,0,0,1,1.151.286,0.949,0.949,0,0,1,.362.787,1.148,1.148,0,0,1-.216.678,1.235,1.235,0,0,1-.584.447,3.459,3.459,0,0,1-1.154.142h-0.43V53.083h0.871Zm-0.446,3.075a6.775,6.775,0,0,1,1.338.089,1.7,1.7,0,0,1,.9.5,1.25,1.25,0,0,1,.094,1.57,1.363,1.363,0,0,1-.617.489,3.444,3.444,0,0,1-1.21.157h-0.932v-2.8h0.425Zm8.187,3.517h3.647V58.969H283.8v-6.6h-0.752v7.306Zm9.815-6.981A3.766,3.766,0,0,0,291.43,54.1a3.812,3.812,0,0,0-.524,1.952,3.6,3.6,0,0,0,1.152,2.692,3.909,3.909,0,0,0,2.825,1.113,3.868,3.868,0,0,0,2.8-1.118,3.8,3.8,0,0,0,0-5.449A4.163,4.163,0,0,0,292.861,52.693Zm3.6,0.624a3.071,3.071,0,0,1,1.176,1.126,3.018,3.018,0,0,1,.418,1.573,3.093,3.093,0,0,1-.418,1.591,3,3,0,0,1-1.163,1.128,3.3,3.3,0,0,1-1.622.412,3.113,3.113,0,0,1-2.242-.9,2.938,2.938,0,0,1-.93-2.2,3.068,3.068,0,0,1,1.589-2.734,3.169,3.169,0,0,1,1.583-.423A3.254,3.254,0,0,1,296.464,53.317Zm12.846-.8a4.835,4.835,0,0,0-1.8-.335,4.4,4.4,0,0,0-2.118.5,3.769,3.769,0,0,0-1.473,1.4,3.678,3.678,0,0,0-.538,1.932,3.6,3.6,0,0,0,.937,2.459,4.18,4.18,0,0,0,3.305,1.381,3.77,3.77,0,0,0,2.744-1,3.607,3.607,0,0,0,1.036-2.69h-3.243v0.705h2.4a2.494,2.494,0,0,1-.951,1.649,3.069,3.069,0,0,1-1.965.636,3.708,3.708,0,0,1-1.76-.425,3.193,3.193,0,0,1-1.258-1.167A2.948,2.948,0,0,1,304.168,56a2.894,2.894,0,0,1,.44-1.527,3.116,3.116,0,0,1,1.241-1.145,3.564,3.564,0,0,1,1.686-.422,3.8,3.8,0,0,1,1.46.31,4.465,4.465,0,0,1,1.379.912l0.583-.537A5.38,5.38,0,0,0,309.31,52.519Z"/>
  <text id="Home_Sobre_Mande_uma_Sugestão_Parcerias_DESIGN_DIY_REC" data-name="Home Sobre Mande uma Sugestão Parcerias  DESIGN  DIY        REC" class="cls-15" x="-0.5" y="-95"><tspan class="cls-16">Home	Sobre	Mande uma Sugestão	Parcerias		DESIGN		DIY	       RECICLAGEM      	ESOTERISMO<tspan class="cls-17">	</tspan></tspan><tspan class="cls-18">	</tspan></text>
  <path id="Forma_2" data-name="Forma 2" class="cls-12" d="M925.221-90.327A10.221,10.221,0,0,1,915-100.548a10.221,10.221,0,0,1,10.221-10.22,10.221,10.221,0,0,1,10.221,10.22A10.221,10.221,0,0,1,925.221-90.327Zm1.621-14.569,1.434,0.024-0.049-2.682-2.838-.012a2.639,2.639,0,0,0-2.186,2.5l-0.025,2.876-1.906.036v2.679l1.929,0.011v6.179l3.114,0.024L926.3-99.478l1.923-.012,0.537-2.682H926.3v-1.98A0.649,0.649,0,0,1,926.842-104.9Z"/>
  <path id="Forma_3" data-name="Forma 3" class="cls-12" d="M957.35-89.232a10.944,10.944,0,0,1-10.944-10.944A10.944,10.944,0,0,1,957.35-111.12a10.944,10.944,0,0,1,10.944,10.944A10.944,10.944,0,0,1,957.35-89.232Zm0.373-18.973c-4.323,0-6.5,3.141-6.5,5.761a3.561,3.561,0,0,0,1.864,3.522,0.312,0.312,0,0,0,.455-0.231c0.042-.162.142-0.57,0.186-0.74a0.451,0.451,0,0,0-.131-0.514,2.686,2.686,0,0,1-.6-1.809,4.338,4.338,0,0,1,4.48-4.416c2.444,0,3.786,1.513,3.786,3.534,0,2.658-1.161,4.9-2.884,4.9a1.421,1.421,0,0,1-1.436-1.776,20.058,20.058,0,0,0,.8-3.272,1.228,1.228,0,0,0-1.227-1.384c-0.973,0-1.755,1.02-1.755,2.386a3.592,3.592,0,0,0,.29,1.46s-1,4.275-1.17,5.024a10.483,10.483,0,0,0-.028,3.5,0.121,0.121,0,0,0,.217.053,9.9,9.9,0,0,0,1.642-3.018c0.112-.41.64-2.535,0.64-2.535a2.6,2.6,0,0,0,2.223,1.149c2.925,0,4.91-2.7,4.91-6.319A5.47,5.47,0,0,0,957.723-108.2Z"/>
  <path id="Forma_4" data-name="Forma 4" class="cls-12" d="M990.2-88.867a10.951,10.951,0,0,1-10.951-10.951A10.95,10.95,0,0,1,990.2-110.768a10.953,10.953,0,0,1,10.954,10.951A10.954,10.954,0,0,1,990.2-88.867Zm6.863-16.1a1.717,1.717,0,0,0-1.716-1.716H985.049a1.716,1.716,0,0,0-1.715,1.716V-94.67a1.716,1.716,0,0,0,1.715,1.716h10.294a1.717,1.717,0,0,0,1.716-1.716v-10.293Zm-2.6,10.428h-8.578a1.105,1.105,0,0,1-.993-0.993v-4.289a1.119,1.119,0,0,1,1.017-.981h0.98a4.405,4.405,0,0,0-.122.981,3.431,3.431,0,0,0,3.431,3.431,3.432,3.432,0,0,0,3.432-3.431,4.357,4.357,0,0,0-.122-0.969h0.979a1.07,1.07,0,0,1,.993.956v4.289A1.142,1.142,0,0,1,994.461-94.536Zm0.024-7.855h-0.857a0.858,0.858,0,0,1-.858-0.858v-0.858a0.858,0.858,0,0,1,.858-0.857h0.857a0.857,0.857,0,0,1,.858.857v0.858A0.857,0.857,0,0,1,994.485-102.391ZM990.2-98.1a1.64,1.64,0,0,1-1.715-1.716,1.8,1.8,0,0,1,1.715-1.716,1.806,1.806,0,0,1,1.716,1.716A1.639,1.639,0,0,1,990.2-98.1Z"/>
  <path id="Forma_5" data-name="Forma 5" class="cls-12" d="M1023.05-89.232a10.949,10.949,0,0,1-10.95-10.951,10.948,10.948,0,0,1,10.95-10.95,10.948,10.948,0,0,1,10.95,10.95A10.949,10.949,0,0,1,1023.05-89.232Zm-0.07-11.842a1.942,1.942,0,0,0,.45-1.339,2.2,2.2,0,0,0-.45-1.388,1.969,1.969,0,0,0-.44-0.418,3.2,3.2,0,0,0-2.52-.782h-4.7l0.01,9.262,0.39-.022v0.036h4.41a7.542,7.542,0,0,0,1.42-.157,2.483,2.483,0,0,0,1.06-.377,2.469,2.469,0,0,0,.69-0.715,2.526,2.526,0,0,0,.44-1.449,2.308,2.308,0,0,0-.38-1.332,1.884,1.884,0,0,0-.5-0.49,1.967,1.967,0,0,0-.46-0.409A2.238,2.238,0,0,0,1022.98-101.074Zm6.55-3.56-4.21-.013-0.03,1.087,4.24-.013v-1.061Zm0.93,2.986a2.864,2.864,0,0,0-1.24-.994,4.369,4.369,0,0,0-1.69-.314,3.612,3.612,0,0,0-2.58.932,3.5,3.5,0,0,0-.99,2.679,3.157,3.157,0,0,0,1.1,2.691,4.094,4.094,0,0,0,2.53.827,3.615,3.615,0,0,0,2.71-.98,1.806,1.806,0,0,0,.7-1.057l-1.88.011a0.989,0.989,0,0,1-.43.294,1.676,1.676,0,0,1-1.04.308,1.994,1.994,0,0,1-1.04-.253,1.771,1.771,0,0,1-.96-1.422l5.35-.009a10.316,10.316,0,0,0-.03-1.367A2.913,2.913,0,0,0,1030.46-101.648Zm-4.06.526a1.562,1.562,0,0,1,1.13-.385,1.716,1.716,0,0,1,1.11.362,1.588,1.588,0,0,1,.5,1.14h-3.24A2.056,2.056,0,0,1,1026.4-101.122Zm-5.76,3.327a2.58,2.58,0,0,1-1.04.283h-1.8v-2.136h2.29a2.681,2.681,0,0,1,.97.121,0.565,0.565,0,0,1,.09.049,1.166,1.166,0,0,1,.13.549A1.124,1.124,0,0,1,1020.64-97.795Zm0.05-3.993a2.142,2.142,0,0,1-1.05.348h-1.85v-1.728l2.02-.022a3.87,3.87,0,0,1,1.15.142c0.01,0,.01.008,0.02,0.011a1.031,1.031,0,0,1,.1.451A0.844,0.844,0,0,1,1020.69-101.788Z"/>
  <rect id="Retângulo_9" data-name="Retângulo 9" class="cls-19" x="1096" y="-137" width="82" height="78"/>
  <rect id="Retângulo_4" data-name="Retângulo 4" class="cls-20" x="16" y="403" width="282" height="142"/>
  <text id="Lorem_ipsum_dolor_sit_amet_consectetur_re_et_dolore_magna" data-name="Lorem ipsum dolor  sit amet, consectetur  re et dolore magna" class="cls-21" x="156" y="443"><tspan x="156">Lorem ipsum dolor </tspan><tspan x="156" dy="21.6">sit amet, consectetur </tspan><tspan x="156" dy="21.6">re et dolore magna</tspan></text>
  <text id="design-2" data-name="design" class="cls-22" x="125" y="520">design</text>
  <rect id="Retângulo_4_copiar" data-name="Retângulo 4 copiar" class="cls-20" x="453" y="403" width="282" height="142"/>
  <text id="Totam_rem_aperiamsci_velit_sed_qui" data-name="Totam rem  aperiamsci  velit, sed qui" class="cls-21" x="601" y="441"><tspan x="601">Totam rem</tspan><tspan x="601" dy="21.6"> aperiamsci </tspan><tspan x="601" dy="21.6">velit, sed qui</tspan></text>
  <g id="Agrupar_4" data-name="Agrupar 4">
    <rect id="Retângulo_14" data-name="Retângulo 14" class="cls-23" x="456" y="771" width="539" height="1"/>
    <text id="Seu_email" data-name="Seu email" class="cls-24" x="519.5" y="757.001"><tspan x="519.5">Seu email</tspan></text>
  </g>
  <text id="DIY-2" data-name="DIY" class="cls-22" x="584.002" y="516">DIY</text>
  <rect id="Retângulo_4_copiar_2" data-name="Retângulo 4 copiar 2" class="cls-20" x="864" y="403" width="282" height="142"/>
  <text id="Totam_rem_aperiamsci_velit_sed_qui-2" data-name="Totam rem  aperiamsci  velit, sed qui" class="cls-21" x="1008" y="441"><tspan x="1008">Totam rem</tspan><tspan x="1008" dy="21.6"> aperiamsci </tspan><tspan x="1008" dy="21.6">velit, sed qui</tspan></text>
  <text id="DIY_copiar" data-name="DIY copiar" class="cls-22" x="995" y="516">DIY</text>
  <text id="interiores" class="cls-25" x="-9.048" y="947.808">interiores</text>
  <text id="Lorem_ipsum_dolor_sit_amet_consecteture_et_dolore_magna_" data-name="Lorem ipsum dolor  sit amet, consecteture et  dolore magna " class="cls-26" x="-12.546" y="1012.291">Lorem ipsum dolor  sit amet, consecteture et <tspan x="-12.546" dy="43.2">dolore magna </tspan></text>
  <text id="Que_tal_receber_meus_posts_em_primeira_mão_pelo_facebook_" data-name="Que tal receber meus posts em primeira mão pelo  facebook?" class="cls-27" x="990" y="987.998"><tspan x="990">Que tal receber meus posts</tspan><tspan x="990" dy="21.6">em primeira mão pelo </tspan><tspan x="990" dy="21.6">facebook?</tspan></text>
  <rect id="Retângulo_17" data-name="Retângulo 17" class="cls-28" x="800" y="1392" width="380" height="1"/>
  <rect id="Retângulo_18" data-name="Retângulo 18" class="cls-29" x="868" y="1371" width="243" height="46"/>
  <text id="QUEM_ESCREVE" data-name="QUEM ESCREVE" class="cls-30" x="988.001" y="1400.998"><tspan x="988.001">QUEM ESCREVE</tspan></text>
  <rect id="Retângulo_19" data-name="Retângulo 19" class="cls-31" x="797" y="1424" width="381" height="321"/>
</svg>
