<svg xmlns="http://www.w3.org/2000/svg" width="1500" height="1500" viewBox="0 0 1500 1500">
  <metadata><?xpacket begin="﻿" id="W5M0MpCehiHzreSzNTczkc9d"?>
<x:xmpmeta xmlns:x="adobe:ns:meta/" x:xmptk="Adobe XMP Core 5.6-c142 79.160924, 2017/07/13-01:06:39        ">
   <rdf:RDF xmlns:rdf="http://www.w3.org/1999/02/22-rdf-syntax-ns#">
      <rdf:Description rdf:about=""/>
   </rdf:RDF>
</x:xmpmeta>
                                                                                                    
                                                                                                    
                                                                                                    
                                                                                                    
                                                                                                    
                                                                                                    
                                                                                                    
                                                                                                    
                                                                                                    
                                                                                                    
                                                                                                    
                                                                                                    
                                                                                                    
                                                                                                    
                                                                                                    
                                                                                                    
                                                                                                    
                                                                                                    
                                                                                                    
                                                                                                    
                           
<?xpacket end="w"?></metadata>
<defs>
    <style>
      .cls-1 {
        fill: #4c464f;
        fill-rule: evenodd;
      }
    </style>
  </defs>
  <path id="Forma_4_copiar" data-name="Forma 4 copiar" class="cls-1" d="M478.333,842.917H457.91L397.917,263.333h-60V283.75h20.247l-60,559.167H277.917v20.416H317.76l20.664-200.416H418.34l19.909,200.416h40.084V842.917ZM338.021,643.333l40.045-357.539,40.756,357.539h-80.8Zm327.057,0H624.661v19.584q-3.75,180-60.039,180-74.3,0-79.544-180V463.75q5.255-180,79.544-180,56.289,0,60.039,159.753V463.75h40.417V443.333H644.811q-6.006-180-80.319-180-62.3,0-87.07,99.831Q466.915,405.2,464.661,463.75V662.917q2.247,58.554,12.761,100.586,24.765,99.834,87.07,99.83,74.316,0,80.319-200.416h20.267V643.333ZM851.823,842.917H831.4L771.406,263.333h-60V283.75h20.247l-60,559.167H651.406v20.416H691.25l20.664-200.416h79.915l19.909,200.416h40.085V842.917ZM711.51,643.333l40.046-357.539,40.755,357.539h-80.8Zm305.29,30.033q-24.03-30.03-78.825-30.033-43.545,0-62.311-44.948Q858.4,556.433,858.4,463.542q0-115.362,17.266-149.825,15.009-29.961,62.311-29.967,56.3,0,60.052,180h40.543V443.333h-21.02q-3.75-82.5-10.51-108.75-17.259-71.25-69.059-71.25-62.3,0-79.563,32.24-20.274,36.738-20.267,167.93,0,120.7,27.747,164.928,21,34.493,72.005,34.486,80.244,0,80.247,100.5,0,45-17.62,62.253T937.9,842.917q-55.507,0-60-79.584H838.151v19.584h20.416q12.744,80.419,79.5,80.416,49.493,0,72.754-20.273,27.75-23.271,27.75-79.59,0-62.323-21.77-90.1h0Zm208.51,169.551h-20.42L1144.9,263.333h-60V283.75h20.24l-60,559.167H1024.9v20.416h39.84l20.66-200.416h79.92l19.91,200.416h40.08V842.917ZM1085,643.333l40.05-357.539,40.75,357.539H1085ZM297.693,872.605V1095h48.291c36.219,0,55.917-19.7,55.917-56.23V928.839c0-36.536-19.7-56.234-55.917-56.234H297.693ZM331.37,903.74h13.343c16.2,0,23.511,8.578,23.511,27.323V1036.54c0,18.75-7.308,27.32-23.511,27.32H331.37V903.74Zm197.932,0V872.605H434.625V1095H529.3v-31.14h-61V997.782h49.244V966.646H468.3V903.74h61Zm122.626,159.49V872.605H618.252V1095h89.911v-31.77H651.928ZM763.443,1095V872.605H729.766V1095h33.677Zm69.892-31.77V872.605H799.658V1095h89.911v-31.77H833.335ZM944.85,1095V872.605H911.173V1095H944.85Zm126.76-190.624V872.605H966.132v31.771h35.9V1095h33.68V904.376h35.9ZM1200.28,1095V872.605H1166.6v93.724h-40.03V872.605h-33.68V1095h33.68V998.1h40.03V1095h33.68Zm59.42,400.01a1046.906,1046.906,0,0,0-229.31-97.11q4.74-20.655,9.48-41.32a1072.321,1072.321,0,0,1,157.43,59.13q26.715-71.73,53.45-143.45,45.2,21.135,89.26,46.25a1143.847,1143.847,0,0,0-102.17,54.85q13.53,60.99,21.86,121.65h0ZM245.93,1235.32c323.715-149.23,687.281-149.3,1011.03-.2q-31.65,86.2-63.29,172.42c-283.2-130.42-601.225-130.36-884.391.18Q277.6,1321.515,245.93,1235.32Zm227.275,162.5a1047.466,1047.466,0,0,0-229.568,97.19q7.614-60.36,20.281-121.26-48.381-29.79-100.585-55.25,44.031-25.125,89.276-46.25,26.725,71.715,53.45,143.45a1070.948,1070.948,0,0,1,157.668-59.19q4.74,20.655,9.478,41.31h0ZM364.127,1285.69a7.975,7.975,0,0,0,4.566,4.98,11.891,11.891,0,0,0,13.4-4.63,7.992,7.992,0,0,0,.514-6.74c-0.365-1.08-.729-2.17-1.094-3.25a8.039,8.039,0,0,0-4.529-5.09,10.246,10.246,0,0,0-7.629.05,10.082,10.082,0,0,0-5.951,4.66,8.073,8.073,0,0,0-.427,6.79C363.36,1283.53,363.743,1284.61,364.127,1285.69Zm42.293-43.64q-3.111.945-6.219,1.91c0.663,2.14,1.325,4.27,1.988,6.41q3.258-.4,6.516-0.8,5.795,19.065,11.59,38.14-2.82,1.455-5.628,2.92,0.989,3.195,1.976,6.38,12.512-3.87,25.09-7.46c6.835-1.94,11.9-5.55,15.254-10.91a21.986,21.986,0,0,0,2.492-17.93c-0.774-2.96-1.548-5.93-2.322-8.89a21.3,21.3,0,0,0-11.178-14.31c-5.758-2.95-12.269-3.42-19.445-1.38Q416.457,1238.995,406.42,1242.05Zm21.862,2.51c4.188-1.19,7.84-.81,10.926,1.13a14.932,14.932,0,0,1,6.312,9.15c0.811,2.98,1.623,5.97,2.435,8.95a15.383,15.383,0,0,1-.688,11.14c-1.593,3.24-4.4,5.42-8.453,6.57q-3.734,1.065-7.462,2.16l-10.785-36.87C423.137,1246.04,425.709,1245.29,428.282,1244.56Zm71.874-3.76q-9.858,2.175-19.686,4.52-1.622-6.78-3.243-13.58,9.4-2.235,18.831-4.33,0.981,3.18,1.958,6.36,4.507-.99,9.02-1.95-1.583-7.44-3.165-14.89-20.308,4.32-40.5,9.36c-2.1.53-4.191,1.05-6.285,1.59q0.831,3.255,1.663,6.5,3.266-.24,6.527-0.46,4.83,19.335,9.661,38.67-2.877,1.305-5.746,2.63,0.826,3.24,1.653,6.47,22.243-5.685,44.651-10.45l-3.156-14.85q-4.375.93-8.746,1.9,0.459,3.285.922,6.59-9.2,2.04-18.369,4.23-1.843-7.725-3.686-15.44,9.754-2.325,19.54-4.49Q501.08,1245,500.156,1240.8Zm56.53-27.39a29.347,29.347,0,0,0-10.367-3.49,38.119,38.119,0,0,0-12.893.35c-6.193,1.22-11.065,3.67-14.581,7.29s-4.8,7.65-3.893,12.06a12.651,12.651,0,0,0,7.482,9.46c4.063,1.86,9.712,3.05,16.943,3.64,4.168,0.39,7.152,1.1,8.957,2.09a6.289,6.289,0,0,1,3.26,4.65,5.943,5.943,0,0,1-1.6,5.36q-2.136,2.28-6.851,3.15a24.13,24.13,0,0,1-6.79.36,14.545,14.545,0,0,1-5.133-1.31q-1.368-3.765-2.745-7.51-4.479.87-8.952,1.8,1.164,5.67,2.33,11.36a26.444,26.444,0,0,0,10.235,3.85,36.008,36.008,0,0,0,12.59-.26c6.294-1.17,11.129-3.4,14.539-6.77a13.109,13.109,0,0,0,3.972-12.08,13.544,13.544,0,0,0-6.783-10.04c-3.79-2.2-9.069-3.57-15.833-4.06-4.744-.5-8.155-1.15-10.222-1.99a5.374,5.374,0,0,1-3.643-4.01,5.843,5.843,0,0,1,1.709-5.4c1.53-1.6,3.927-2.72,7.185-3.32a28.594,28.594,0,0,1,6.434-.48,16.755,16.755,0,0,1,4.8.78q1.433,3.615,2.855,7.25,4.427-.78,8.858-1.51Q557.618,1219.02,556.686,1213.41Zm12.128-.44,6.132,39.39c-1.994.69-3.984,1.4-5.973,2.1q0.533,3.3,1.064,6.59,11.809-1.9,23.648-3.55c-0.307-2.21-.615-4.41-0.922-6.62q-3.161-.135-6.325-0.25-2.862-19.725-5.726-39.45,3.108-1.035,6.225-2.04-0.463-3.33-.928-6.65-12.425,1.725-24.819,3.73,0.534,3.315,1.069,6.63Q565.538,1212.9,568.814,1212.97Zm74.207,11.13q-10.119.93-20.224,2.05,0.429,3.885.857,7.77c2.8-.1,5.6-0.2,8.4-0.28,0.321,3.12.642,6.25,0.964,9.37a13.3,13.3,0,0,1-3.257,1.69,23.714,23.714,0,0,1-5.59,1.18c-5.179.57-9.331-.63-12.5-3.64s-5.116-7.3-5.82-12.91c-0.082-.65-0.164-1.31-0.247-1.96-0.722-5.76.122-10.59,2.575-14.51,2.45-3.9,6.308-6.17,11.536-6.75a21.891,21.891,0,0,1,6.261.11,12.551,12.551,0,0,1,4.54,1.62q1.218,3.615,2.423,7.23,4.4-.45,8.8-0.85-0.516-5.565-1.031-11.13a27.645,27.645,0,0,0-10.25-4.66,37.374,37.374,0,0,0-13.135-.69c-8.106.91-14.365,4.32-18.682,10.13s-5.871,12.86-4.749,21.1q0.128,0.945.256,1.89c1.085,7.97,4.432,14.09,9.95,18.44s12.1,6.07,19.834,5.2a38.173,38.173,0,0,0,13.326-3.58,26.391,26.391,0,0,0,7.725-5.59Q644,1234.725,643.021,1224.1Zm58.669-31.97q-9.272.375-18.539,0.89c0.124,2.23.249,4.47,0.373,6.7q3.247,0.39,6.49.8,0.739,14.73,1.48,29.45a2.032,2.032,0,0,1-.239.05q-12.749-18.06-26.259-35.85-6.049.435-12.1,0.93-3.209.255-6.417,0.54,0.292,3.345.583,6.69,3.24,0.285,6.474.6l3.244,39.73q-3.031.825-6.057,1.66c0.193,2.22.386,4.43,0.579,6.65q11.892-1.035,23.8-1.82l-0.438-6.66c-2.091-.25-4.183-0.48-6.277-0.72q-1.05-14.715-2.1-29.45a2.08,2.08,0,0,1,.242-0.05q13.318,17.79,25.875,35.88,5.75-.285,11.5-0.52-0.952-23.82-1.9-47.65l6.39-1.38c-0.077-2.24-.154-4.47-0.231-6.71-2.158.07-4.316,0.16-6.473,0.24h0Zm80.493,27.59q-10.148-.3-20.3-0.41-0.045,3.9-.09,7.82c2.788,0.23,5.575.48,8.36,0.73l-0.177,9.42a12.785,12.785,0,0,1-3.432,1.28,23.6,23.6,0,0,1-5.684.5c-5.2-.06-9.173-1.75-11.947-5.12s-4.187-7.87-4.208-13.52q0-.99-0.007-1.98c-0.021-5.8,1.4-10.5,4.3-14.09s7-5.36,12.249-5.31a22.11,22.11,0,0,1,6.193.87,12.648,12.648,0,0,1,4.307,2.15q0.77,3.735,1.528,7.47,4.414,0.1,8.827.22,0.162-5.58.322-11.17a27.48,27.48,0,0,0-9.6-5.86,37.448,37.448,0,0,0-12.938-2.28c-8.144-.07-14.757,2.55-19.736,7.8s-7.368,12.06-7.252,20.37c0.009,0.64.018,1.28,0.026,1.91,0.113,8.04,2.689,14.53,7.631,19.51s11.255,7.48,19.026,7.56a38.2,38.2,0,0,0,13.643-1.94,26.469,26.469,0,0,0,8.336-4.62Q781.873,1230.38,782.183,1219.72Zm13.306-27.6-6.431-.24q-0.115,3.36-.23,6.71l6.349,1.38-1.584,39.84c-2.072.29-4.142,0.6-6.21,0.91-0.076,2.22-.152,4.45-0.228,6.67q11.919,0.42,23.832,1.07,0.185-3.33.371-6.66-3.069-.75-6.144-1.47,0.367-7.32.733-14.63,4.817,0.24,9.632.52a8.954,8.954,0,0,1,6.271,2.81,8.648,8.648,0,0,1,1.851,6.49c-0.069,1.05-.139,2.1-0.209,3.16a12.006,12.006,0,0,0,1.8,7.73c1.4,2.05,3.972,3.21,7.735,3.5q2.979,0.225,5.959.46l0.54-6.69c-0.471-.1-0.943-0.2-1.414-0.31a3.4,3.4,0,0,1-2.409-1.39,4.651,4.651,0,0,1-.538-2.89q0.108-1.41.215-2.82a14.573,14.573,0,0,0-1.635-8.52c-1.348-2.35-3.728-4.14-7.14-5.34a16.906,16.906,0,0,0,7.363-4.49,11.589,11.589,0,0,0,2.949-7.09A13.975,13.975,0,0,0,832,1198.48c-3.674-3.15-8.959-4.96-15.815-5.35Q805.841,1192.53,795.489,1192.12Zm11.683,9.12q4.262,0.21,8.521.46c3.238,0.18,5.642,1.08,7.2,2.67a7.6,7.6,0,0,1,2.092,6.12,6.9,6.9,0,0,1-2.856,5.54c-1.738,1.22-4.253,1.72-7.555,1.54q-4.1-.24-8.2-0.44Q806.775,1209.18,807.172,1201.24Zm35,49.39q9.784,0.825,19.555,1.81c0.225-2.21.449-4.43,0.673-6.64l-3.937-1.08q1.641-3.675,3.3-7.34,9.423,0.93,18.834,2.04c0.556,2.62,1.106,5.25,1.65,7.87-1.36.07-2.72,0.14-4.079,0.22q-0.383,3.315-.766,6.63,9.76,1.125,19.5,2.42c0.294-2.2.588-4.41,0.882-6.61l-4.037-1.11q-5.6-25.08-11.96-50.1-6.175-.705-12.357-1.34-11.634,23.07-22.527,46.36c-1.393.07-2.785,0.15-4.176,0.22Q842.454,1247.31,842.176,1250.63Zm31.879-39.89a2.039,2.039,0,0,1,.245.02q2.3,10.1,4.479,20.19-6.708-.765-13.424-1.45,4.294-9.4,8.7-18.76h0Zm-5.581-17.43q4.854,0.5,9.7,1.03,6.266-4.3,12.622-8.53l-0.057-.24q-6.454-.765-12.917-1.48Q873.117,1188.68,868.474,1193.31Zm32.206,63.76q11.841,1.62,23.656,3.49,0.522-3.285,1.045-6.59-2.985-1.05-5.978-2.09,1.152-7.545,2.306-15.08,10.2,1.56,20.385,3.3,0.724-4.23,1.45-8.46-10.258-1.755-20.538-3.33,1.155-7.56,2.311-15.12,9.7,1.485,19.384,3.13c-0.194,2.21-.39,4.43-0.586,6.64q4.539,0.765,9.074,1.58,1.34-7.485,2.678-14.98-23.77-4.245-47.663-7.52-0.455,3.33-.91,6.66c2.066,0.66,4.13,1.34,6.19,2.01q-2.808,19.74-5.617,39.47-3.142.135-6.283,0.28C901.282,1252.66,900.981,1254.87,900.68,1257.07Zm64.432-37.83q-3.688,19.59-7.376,39.18-3.173-.015-6.34-0.01-0.6,3.285-1.2,6.56,11.778,2.16,23.52,4.56,0.669-3.27,1.339-6.54-2.942-1.185-5.891-2.36,3.891-19.545,7.78-39.09,3.282,0.06,6.566.15,0.674-3.285,1.346-6.57-12.322-2.535-24.684-4.78l-1.206,6.6Q962.045,1218.08,965.112,1219.24Zm70.928,15.54a26.637,26.637,0,0,0-7.59-8.28,32.16,32.16,0,0,0-11.85-5.25c-8.01-1.87-15.13-.78-21.249,3.2s-9.964,9.97-11.608,17.86q-0.192.915-.382,1.83c-1.651,7.92-.528,14.91,3.259,21.01s9.423,9.98,16.99,11.75a31.516,31.516,0,0,0,12.37.58,25.572,25.572,0,0,0,10.21-3.84l2.7-10.65q-4.26-1.08-8.53-2.12c-0.98,2.29-1.95,4.59-2.93,6.9a10.828,10.828,0,0,1-4.93,1.47,20.093,20.093,0,0,1-6.36-.53c-4.84-1.13-8.2-3.7-10.1-7.74s-2.265-8.83-1.055-14.34c0.139-.64.278-1.27,0.417-1.9,1.21-5.52,3.557-9.69,7.076-12.5s7.86-3.63,12.98-2.43a18.886,18.886,0,0,1,6.02,2.41,12.792,12.792,0,0,1,3.76,3.57c-0.19,2.5-.37,4.99-0.56,7.49q4.335,1.065,8.66,2.16Zm52.89,35.24c2.4-7.72,1.98-14.89-1.35-21.48s-9.03-11.06-16.99-13.33c-7.94-2.25-15.07-1.41-21.29,2.46s-10.31,9.76-12.33,17.59l-0.21.81c-2.04,7.88-1.34,15,1.98,21.38s8.73,10.6,16.28,12.74c7.57,2.16,14.41,1.42,20.65-2.24s10.61-9.35,13.02-17.13C1088.77,1270.56,1088.85,1270.29,1088.93,1270.02Zm-11.65-2.66c-1.67,5.6-4.23,9.75-7.64,12.47s-7.49,3.39-12.26,2.03c-4.72-1.34-7.78-4.03-9.21-8.13s-1.41-8.96.12-14.61c0.08-.3.16-0.59,0.24-0.89,1.51-5.59,3.92-9.79,7.27-12.57s7.5-3.48,12.41-2.08,8.12,4.2,9.6,8.38,1.38,9.01-.26,14.52C1077.46,1266.77,1077.37,1267.07,1077.28,1267.36Zm38.05,12.11a7.974,7.974,0,0,0,.51,6.74,11.911,11.911,0,0,0,13.4,4.64,8.01,8.01,0,0,0,4.57-4.98c0.38-1.08.76-2.16,1.15-3.23a8.077,8.077,0,0,0-.42-6.81,10.306,10.306,0,0,0-6.03-4.68,10.149,10.149,0,0,0-7.56,0,8.065,8.065,0,0,0-4.53,5.07C1116.06,1277.3,1115.69,1278.39,1115.33,1279.47Zm-868.152-99.39c-44.481-53.19-68.481-119.45-87.986-186.187a1039.385,1039.385,0,0,1-25.02-106.615c0.026-.013.048-0.009,0.073-0.024,8.028-4.452,42.456-35.512,23.132-44.679-7.909-3.753-16.357,7.59-20.4,13.181A56.718,56.718,0,0,0,130.7,866.98c-1.785-11.061-3.444-22.145-4.893-33.263,11-6.531,41.421-32.028,26.584-42.208-6.73-4.618-14.167.931-19.392,5.435a707.359,707.359,0,0,1,43.125-74.851,2.465,2.465,0,0,0,.561.5c8.837,5.233,38.528,4,36.267-12.338-1.134-8.2-10.386-7.272-16.331-6.381a43.3,43.3,0,0,0-9.905,2.718c2.428-3.454,4.851-6.909,7.357-10.338,5.573-7.619,11.476-15.685,16.97-24.148a61.34,61.34,0,0,0,29.179-1.988c5.452-1.842,12.839-6.383,12.078-13.411-0.932-8.618-10.678-8.381-16.769-6.887a43.156,43.156,0,0,0-15.608,7.381c7.8-14.487,13.408-29.943,13.633-46.163,7.815-3.273,14.416-10.911,18.6-18.326,2.886-5.115,6.821-13.011,1.948-18.154-4.345-4.583-11.178-2.306-15,1.722a32.26,32.26,0,0,0-6.027,9.733,36.656,36.656,0,0,0-2.056-5.15c-2.54-5.146-7.793-12.84-14.429-10.765-7.891,2.469-5.346,12.518-2.73,18.04a38.842,38.842,0,0,0,14.42,16.421,2.936,2.936,0,0,0,.2,1.072c-2.4,17.833-8.055,33.431-15.592,48.064-1.047-13.027-6.426-25.525-19.98-28.584a3.123,3.123,0,0,0-3.21,2.1c-5.019,15.355,1.132,33.455,15.5,40.131-8.164,13.438-17.624,26.372-27.249,39.87-0.628.881-1.229,1.787-1.851,2.672,2.746-8.749,3.127-20.1.727-27.936-2.414-7.874-10.32-9.177-16.169-4.176-14,11.968-3.083,32.7,8.256,42.555-18.252,27.288-34.165,56.61-46.171,87.358q-3.092-29.08-4.634-58.334a3.137,3.137,0,0,0,.691-0.142c9.9-4.059,17.857-13.125,21.626-23.394,1.953-5.319,4.056-15.116-3.933-16-7.346-.814-15.6,9.371-19.2,14.878-0.066.1-.123,0.213-0.188,0.316q-1.161-37.425.153-74.9a3.127,3.127,0,0,0,1.2-.393c6.963-4.041,38.711-26.113,24.991-36.5-8.595-6.506-18.308,4.18-25.16,14.95,1.264-22.78,3.156-45.53,5.816-68.191a3.148,3.148,0,0,0,1.739-.078,44.635,44.635,0,0,0,22.233-17.7c2.929-4.448,6.388-12.126-.489-14.846-6.52-2.578-13.534,3.863-17.626,8.24a41.8,41.8,0,0,0-3.271,4.013q4.413-32.37,10.719-64.428c7.95,2.066,17.282-3.211,23.564-8.069,4.884-3.778,13.892-11.9,11.481-19.233-2.524-7.669-13.148-4.4-18.193-1.871a45.9,45.9,0,0,0-13.033,10.4q6.172-28.476,13.963-56.433a2.246,2.246,0,0,0,2.113,1.928c9.737,0.811,42.431-16.488,31.462-29.978-8.455-10.4-20.4.286-28.8,11.329q8.6-29.271,18.616-58.086c12.869,0.3,40.129-5.97,36.148-22.863-3.6-15.26-19.708-4.126-30.216,6.067q7.578-20.966,15.743-41.743a1.858,1.858,0,0,0,.579-0.629,0.043,0.043,0,0,1,.011-0.021c8.123,1.4,17.713-2.465,24.627-6.451,4.228-2.438,10.212-7.045,8.8-12.931s-7.824-5.721-12.322-4.278c-6.225,1.994-11.664,6.138-16.071,11.184a80.588,80.588,0,0,0,2.473-13.885c0.55-5.944,1.512-16.4-6.195-17.912-7.809-1.53-9,9.591-9.617,15.194a57.119,57.119,0,0,0,3.51,27.166,2.058,2.058,0,0,0,.783.953q-9.549,20.834-18.022,42.193a66.5,66.5,0,0,0-4.267-14.169c-2.273-5.363-8.024-18.179-15.847-13.731-6.367,3.619-5.039,14.766-3.118,20.418,3.038,8.939,9.69,16.482,16.587,22.431a0.71,0.71,0,0,0,.848.08q-11.747,31-21.322,62.886c-3.69-16.663-14.666-43.541-25.81-33.627-6.66,5.924-2.068,18.647.8,25.166a47,47,0,0,0,20.785,22.782q-6.918,24.236-12.6,48.869a58.746,58.746,0,0,0-10.97-20.434c-3.74-4.324-10.39-8.431-14.753-2.407-4.869,6.726.1,19.392,3.352,25.744a44.254,44.254,0,0,0,17.649,18.524q-7.713,36.819-12.734,74.24c-4.433-14.28-13.467-34.587-25.382-23.636C76.833,534.3,102.8,555.45,115.245,560.648q-5.2,43.371-6.909,87.113c-1.473-2.429-2.872-4.9-4.288-7.364a1.5,1.5,0,0,0-.9-1.54c-0.388-.681-0.8-1.35-1.185-2.034a2.568,2.568,0,0,0-.621-1.509c-0.144-.162-0.308-0.307-0.453-0.467a376.964,376.964,0,0,1-33.559-82.984,2.737,2.737,0,0,0,1.907-1.4,325.951,325.951,0,0,0,15.689-30.184c2.175-4.972,3.362-12-2.451-14.918-6.568-3.292-11.111,4.964-14.122,9.7a88.073,88.073,0,0,0-6.729,12.788c-1.57-7.628-2.944-15.309-4.064-23.042q-1.379-9.516-2.182-18.973c6.685-4.947,40.115-34.815,22.032-40.567-6.905-2.2-13.029,6.291-16.723,11.161a59.67,59.67,0,0,0-6.4,10.611,382.955,382.955,0,0,1,.771-38.294,2.539,2.539,0,0,0,2.148-.374c7.852-5.06,41.313-24.675,25.568-38-8.676-7.345-18.619,4.421-25.578,15.833,1.885-15.667,4.544-31.317,7.792-47,5.492,2.455,12.809,1.241,18.143-.8,5.3-2.03,13.272-6.782,13.511-13.536,0.269-7.632-8.318-7.808-13.515-6.611a28.881,28.881,0,0,0-8.675,3.579c0.165-1.139.275-2.21,0.333-3.136a32.52,32.52,0,0,0-5.89-20.882,3.5,3.5,0,0,0-4.985-.481c-10.8,8.339-11.918,26.006-2.666,35.545a291.753,291.753,0,0,0-12.706,54.08c-4.383-11.353-10.662-22.925-23.26-22.105-1.849.122-3.077,2.321-2.834,4.056,2.073,14.8,10.945,29.319,24.157,35.7a333.53,333.53,0,0,0-.534,45.717c-8.428-11.429-26.588-29.549-31.147-17.185-2.5,6.783,4.491,13.372,8.617,17.128,6.681,6.083,14.741,10.782,23.5,12.535a363.4,363.4,0,0,0,9.22,54.127c-9.3-10.917-27.507-28.13-31.415-16.307-2.254,6.818,6.638,14.037,10.784,17.649A56.421,56.421,0,0,0,59.9,550.607a363.483,363.483,0,0,0,31.945,76.544A60.341,60.341,0,0,0,73.6,619.206c-5.774-1.467-16.877-3.133-17.284,6.191-0.353,8.093,10.125,12.327,15.977,14.574,9.032,3.466,19.223,4.888,28.732,2.646,2.315,3.662,4.679,7.281,7.12,10.827q-1.331,39.71.207,79.394c-1.782-5.7-5.2-11.028-10.2-13.239-5.342-2.367-13.126-.822-16.51,4.447-4.039,6.291.26,12.8,4.8,17.134a39.636,39.636,0,0,0,22.817,10.985c1.278,23.073,3.372,46.05,6.078,68.912-0.176.406-.33,0.83-0.5,1.243-4.237-7.342-27.751-40.564-37.168-24.888-4.026,6.7,3.986,12.964,8.206,16.656a72.2,72.2,0,0,0,29.954,15.661,2.6,2.6,0,0,0,.538.033q2.876,22.806,6.711,45.39c-10.726-11.95-31.035-28.24-34.18-11.458-1.5,7.982,7,16.24,12.394,20.385a37.237,37.237,0,0,0,24.731,7.829q8.307,45.09,20.349,88.939c19.488,70.563,43,151.963,95.408,203.823C244.915,1187.79,250.18,1183.67,247.178,1180.08ZM223.365,592.922c-1.431-2.017-10.107-15.9-2.731-15.907,3.443,0,6.82,10.888,7.408,13.55a31.4,31.4,0,0,1,.491,8.376A43.827,43.827,0,0,1,223.365,592.922Zm10.681,9.868a26.563,26.563,0,0,0,.694-7.168,56.756,56.756,0,0,1,2.229-5.558c0.425-.906,3.234-7.171,4.625-7.975l8.619,0.476a21.717,21.717,0,0,1-1.547,3.665C245.154,593.626,239.925,598.184,234.046,602.79Zm-39.367,29.422c12.029,4.391,12.116,19.523,12.536,31.23C197.37,656.49,191.776,644.433,194.679,632.212Zm33.072,26.532c2.825-1.3,6.811-3.387,9.911-3.071,0.818-.108,1.634-0.218,2.452-0.325q7.515,4.8,1.618,7.178c-6.554,4.226-16.257,4.123-24.66,3.21A44.3,44.3,0,0,1,227.751,658.744Zm-67.132,31.8c0.408-2.521,1.788-7.456,4.5-8.48,7.923-2.994,7.06,8.711,7.068,12.142,0.018,6.72-1.589,13.312-1.542,20a2.234,2.234,0,0,0,1.174,1.847c-0.177.259-.36,0.512-0.535,0.773C165.023,709.61,159.034,700.369,160.619,690.545Zm20.363,24.335a44.521,44.521,0,0,1,7.6-3.314c2.306-.76,13.5-4.189,15.511-2,6,6.511-8.792,8.879-10.977,9.107-4.858.5-9.077-.807-13.772-1.353C179.889,716.5,180.431,715.691,180.982,714.88Zm17.242-468.671a65.856,65.856,0,0,1,.281-7.768c0.13-1.288.3-2.576,0.51-3.855,0.4-2.5-.33-5.278,2.879-4.687,2.686,0.5,2.091,1.536,2.114,4.174,0.012,1.355-.078,2.72-0.173,4.072a71.84,71.84,0,0,1-1,8.085,78.537,78.537,0,0,1-3.284,11.646A67.869,67.869,0,0,1,198.224,246.209Zm15.7,5.52a39.185,39.185,0,0,1,6.669-3.673,28.125,28.125,0,0,1,4.5-1.687q6.332,3.543,2.6,6.176c-2.074,3.652-10.679,5.911-14.3,6.813a58.782,58.782,0,0,1-8.432,1.146A39.93,39.93,0,0,1,213.922,251.729ZM163.775,306.5c-1.991-3.8-6.955-15.045-2.876-18.948,3.918-3.751,9.113,11.545,10.1,15.052,1.665,5.916,1.485,11.761,2.151,17.712C169.88,315.839,166.372,311.459,163.775,306.5Zm27.689,2.742a50.541,50.541,0,0,1,7.88-4.772,26.128,26.128,0,0,1,2.6-1.189q4.842-2.837,2.942,7.46c-2.012,3.191-8.942,5.148-12.254,6.1a39.573,39.573,0,0,1-10.69,1.446A59.54,59.54,0,0,1,191.464,309.245ZM137.2,382.459c-2.945-4.416-11.045-18.345-6.072-22.669,3.314-2.884,5.094,2.884,7,6.065a71.01,71.01,0,0,1,4.957,9.954c2.455,6.1,3.275,12.554,5.256,18.706A55.335,55.335,0,0,1,137.2,382.459Zm19.322,14.482a71.331,71.331,0,0,1,10.192-13.1,59.66,59.66,0,0,1,5.467-4.867c3.553-2.781,5.769-5.447,9.211-1.732,3.349,3.614.644,4.5-2.239,7.225a45.768,45.768,0,0,1-7.919,6.011c-4.693,2.8-10.012,3.758-14.68,6.439A0.244,0.244,0,0,1,156.52,396.941ZM122.4,455.41c-2.757-3.6-9.362-13.756-8.02-18.794q-1.057-2.493,2.125-2.959,2.919-3.483,4.311,1.2c2.318,2.016,4.034,6.585,5.32,9.361,2.682,5.788,4.084,11.817,5.6,17.974-0.127.583-.245,1.166-0.37,1.75A41.838,41.838,0,0,1,122.4,455.41Zm16.67,11.325c5.726-5.826,24.991-23.783,26.008-13.4,0.37,3.771-11.289,10.89-13.864,12.224-4.129,2.137-8.715,2.651-12.824,4.554C138.62,468.984,138.851,467.86,139.074,466.735Zm-35.8,79.276c-2.337-2.5-14.2-16.817-7.593-20.008,10.091-4.872,15.656,22.108,19.211,29.359A61.667,61.667,0,0,1,103.27,546.011Zm21.674,7.15c0.045-.35.093-0.7,0.137-1.051,3.229-6.632,7.818-12.746,13.861-16.614,3.773-2.414,6.207-2.351,3.976,2.93-0.977,2.311-3.475,4.641-5.23,6.354A45.221,45.221,0,0,1,124.944,553.161ZM63.965,349.193a20.766,20.766,0,0,1,1.46-23.267,25.513,25.513,0,0,1,.187,21.649c-0.292.624-.585,1.165-0.859,1.671A2.779,2.779,0,0,0,63.965,349.193Zm8.2,1.069a23.355,23.355,0,0,1,6.324-4.318c2.544-1.161,16.143-4.311,9.766,1.91a20.471,20.471,0,0,1-11.212,5.216,20.9,20.9,0,0,1-6.334-.223A16.072,16.072,0,0,0,72.16,350.262ZM30.118,392.139c9.588,2.468,11.047,18.427,17.038,26.262-0.007.068-.016,0.137-0.023,0.206C38.816,411.568,32.873,403.287,30.118,392.139Zm41.119,17.844a168.114,168.114,0,0,1-15.613,11.39c0.1-1.131.213-2.26,0.32-3.392,1.969-3.054,3.994-6.07,6.2-8.95,2.948-3.857,6.975-10.2,11.366-12.315,5.374-2.585,7.077,3.05,4.353,7.04C76.292,406.05,73.345,408.234,71.236,409.983ZM35.864,471.6a57.648,57.648,0,0,1-6.517-5.021c-0.166-.148-6.926-6.279-6.825-7.485,0.332-3.943,13.671,8.714,14.331,9.4,2.153,2.242,4.042,4.719,6.054,7.065A60.761,60.761,0,0,1,35.864,471.6ZM55.9,476.8a65.556,65.556,0,0,1,4.229-8.749c1.8-3.083,7.268-12.9,10.526-13.52,8.5-1.608-3.9,12.088-5.724,14.037A87.534,87.534,0,0,1,55.9,476.8ZM34.747,528.13c-1.261-2.485-2.894-3.334,1.5-.96a42.607,42.607,0,0,1,6.52,4.909c3.951,3.283,7.188,7.077,10.613,10.768C45.777,539.362,37.959,534.461,34.747,528.13Zm28.981,9.324A95.974,95.974,0,0,1,68.6,526.648c0.753-1.387,8.59-16.253,11.245-11.459,1.023,1.846-6.889,13.66-7.975,15.747-2.225,4.278-4.478,8.547-6.623,12.87C64.716,541.7,64.219,539.574,63.728,537.454Zm20.221,99.11c-4.185-1.042-14.723-3.552-17.218-7.351q-4.342-1.807.308-4.075l2.535,0.337c3.534-.34,8.2,1.947,11.447,3.344,5.485,2.361,10.029,5.788,14.645,9.443A69.9,69.9,0,0,1,83.949,636.564Zm33.687,5.539c0.05-1.168.112-2.335,0.166-3.5,1.334-1.991,2.691-3.967,4.124-5.885,2.876-3.853,7.51-11.805,12.189-13.319q2.029-2.646,3.086,1.06,3.261,2.281-.2,4.608c-1.018,2.742-4.463,5.314-6.414,7.22A68.988,68.988,0,0,1,117.636,642.1ZM88.9,733.8c-5-7.872,4.13-9.784,8.655-5.9,4.417,3.787,4.527,10.295,6.832,15.327a2.983,2.983,0,0,0,4.469,1.014q0.083,1.69.172,3.382C101.379,744.932,93.144,740.472,88.9,733.8Zm28.892,8.625q-0.146-3.108-.271-6.216a37.141,37.141,0,0,1,10.541-15.361c2.613-2.259,7-7.423,7.475.149,0.16,2.548-3.2,7.642-4.26,9.279C127.721,735.753,123.156,739.247,117.793,742.42Zm-17.472,73.638c-3.375-2.225-12.653-7.671-13.8-11.419-1-3.28-.023-2.336,2.7-1.119,2.5,1.115,6.9,6.2,8.5,7.9,1.894,2.014,3.628,4.142,5.31,6.311C102.122,817.18,101.208,816.643,100.321,816.058Zm24.489,9.677c-0.364-2.953-.769-5.9-1.109-8.86-0.006-.051-0.011-0.1-0.016-0.154,1.29-1.849,2.622-3.666,4.044-5.411,2.866-3.514,11-13.858,15.959-13.98l4.687,3.994q-1.812,2.907-3.847,5.651a80.65,80.65,0,0,1-8.306,9.534A107.478,107.478,0,0,1,124.81,825.735Zm24.449,26.294,2.177-1.76q4.681,4.561,1.054,8.182c-0.971,2.694-4.286,5.691-6.07,7.752-4.2,4.858-9.136,8.794-13.641,13.253-0.1-.568-0.2-1.133-0.3-1.7C135.584,867.7,140.994,856.931,149.259,852.029ZM97.078,868.944c-2.925-10.473,11.262,1.452,13.886,3.727,5.05,4.378,8.959,10.028,14.11,14.185,0.03,0.167.059,0.336,0.089,0.5C114.843,885.676,100.1,879.749,97.078,868.944ZM1256.15,1180.08c44.49-53.19,68.49-119.45,87.99-186.187a1038.074,1038.074,0,0,0,25.02-106.615c-0.02-.013-0.05-0.009-0.07-0.024-8.03-4.452-42.46-35.512-23.13-44.679,7.91-3.753,16.35,7.59,20.4,13.181a56.455,56.455,0,0,1,6.27,11.224c1.79-11.061,3.45-22.145,4.89-33.263-11-6.531-41.42-32.028-26.58-42.208,6.73-4.618,14.17.931,19.39,5.435a706.8,706.8,0,0,0-43.12-74.851,2.692,2.692,0,0,1-.56.5c-8.84,5.233-38.53,4-36.27-12.338,1.13-8.2,10.39-7.272,16.33-6.381a43.471,43.471,0,0,1,9.91,2.718c-2.43-3.454-4.85-6.909-7.36-10.338-5.57-7.619-11.48-15.685-16.97-24.148a61.347,61.347,0,0,1-29.18-1.988c-5.45-1.842-12.84-6.383-12.08-13.411,0.93-8.618,10.68-8.381,16.77-6.887a43.2,43.2,0,0,1,15.61,7.381c-7.8-14.487-13.41-29.943-13.63-46.163-7.82-3.273-14.42-10.911-18.6-18.326-2.89-5.115-6.83-13.011-1.95-18.154,4.34-4.583,11.18-2.306,15,1.722a32.426,32.426,0,0,1,6.03,9.733,35.93,35.93,0,0,1,2.05-5.15c2.54-5.146,7.79-12.84,14.43-10.765,7.89,2.469,5.35,12.518,2.73,18.04a38.855,38.855,0,0,1-14.42,16.421,2.816,2.816,0,0,1-.2,1.072c2.4,17.833,8.06,33.431,15.6,48.064,1.04-13.027,6.42-25.525,19.98-28.584a3.133,3.133,0,0,1,3.21,2.1c5.01,15.355-1.14,33.455-15.5,40.131,8.16,13.438,17.62,26.372,27.25,39.87,0.62,0.881,1.23,1.787,1.85,2.672-2.75-8.749-3.13-20.1-.73-27.936,2.41-7.874,10.32-9.177,16.17-4.176,14,11.968,3.08,32.7-8.26,42.555,18.26,27.288,34.17,56.61,46.17,87.358q3.105-29.08,4.64-58.334a3.082,3.082,0,0,1-.69-0.142c-9.9-4.059-17.86-13.125-21.63-23.394-1.95-5.319-4.05-15.116,3.93-16,7.35-.814,15.6,9.371,19.2,14.878,0.07,0.1.12,0.213,0.19,0.316q1.155-37.425-.16-74.9a3.148,3.148,0,0,1-1.2-.393c-6.96-4.041-38.71-26.113-24.99-36.5,8.59-6.506,18.31,4.18,25.16,14.95q-1.89-34.17-5.82-68.191a3.154,3.154,0,0,1-1.74-.078,44.615,44.615,0,0,1-22.23-17.7c-2.93-4.448-6.39-12.126.49-14.846,6.52-2.578,13.53,3.863,17.63,8.24a43.031,43.031,0,0,1,3.27,4.013q-4.41-32.37-10.72-64.428c-7.95,2.066-17.28-3.211-23.57-8.069-4.88-3.778-13.89-11.9-11.48-19.233,2.53-7.669,13.15-4.4,18.2-1.871a45.952,45.952,0,0,1,13.03,10.4q-6.18-28.476-13.96-56.433a2.252,2.252,0,0,1-2.12,1.928c-9.73.811-42.43-16.488-31.46-29.978,8.46-10.4,20.4.286,28.8,11.329q-8.595-29.271-18.61-58.086c-12.87.3-40.13-5.97-36.15-22.863,3.6-15.26,19.71-4.126,30.22,6.067q-7.59-20.966-15.75-41.743a2.01,2.01,0,0,1-.58-0.629,0.02,0.02,0,0,0-.01-0.021c-8.12,1.4-17.71-2.465-24.62-6.451-4.23-2.438-10.22-7.045-8.81-12.931s7.83-5.721,12.33-4.278c6.22,1.994,11.66,6.138,16.07,11.184a81.188,81.188,0,0,1-2.48-13.885c-0.54-5.944-1.51-16.4,6.2-17.912,7.81-1.53,9,9.591,9.62,15.194a57.18,57.18,0,0,1-3.51,27.166,2.07,2.07,0,0,1-.79.953q9.555,20.834,18.03,42.193a66.494,66.494,0,0,1,4.26-14.169c2.28-5.363,8.03-18.179,15.85-13.731,6.37,3.619,5.04,14.766,3.12,20.418-3.04,8.939-9.69,16.482-16.59,22.431a0.712,0.712,0,0,1-.85.08q11.745,31,21.33,62.886c3.68-16.663,14.66-43.541,25.8-33.627,6.67,5.924,2.07,18.647-.79,25.166a47.028,47.028,0,0,1-20.79,22.782q6.915,24.236,12.61,48.869a58.549,58.549,0,0,1,10.97-20.434c3.74-4.324,10.39-8.431,14.75-2.407,4.87,6.726-.1,19.392-3.35,25.744a44.238,44.238,0,0,1-17.65,18.524q7.71,36.819,12.73,74.24c4.44-14.28,13.47-34.587,25.39-23.636,15.19,13.967-10.77,35.114-23.22,40.312q5.19,43.371,6.91,87.113c1.47-2.429,2.87-4.9,4.29-7.364a1.5,1.5,0,0,1,.89-1.54c0.39-.681.8-1.35,1.19-2.034a2.517,2.517,0,0,1,.62-1.509c0.14-.162.3-0.307,0.45-0.467A376.946,376.946,0,0,0,1436,551.863a2.73,2.73,0,0,1-1.91-1.4,328.917,328.917,0,0,1-15.69-30.184c-2.17-4.972-3.36-12,2.46-14.918,6.56-3.292,11.11,4.964,14.12,9.7a88.949,88.949,0,0,1,6.73,12.788c1.57-7.628,2.94-15.309,4.06-23.042q1.38-9.516,2.18-18.973c-6.68-4.947-40.11-34.815-22.03-40.567,6.91-2.2,13.03,6.291,16.72,11.161a59.109,59.109,0,0,1,6.4,10.611,381.821,381.821,0,0,0-.77-38.294,2.519,2.519,0,0,1-2.14-.374c-7.86-5.06-41.32-24.675-25.57-38,8.67-7.345,18.62,4.421,25.58,15.833-1.89-15.667-4.55-31.317-7.8-47-5.49,2.455-12.81,1.241-18.14-.8-5.3-2.03-13.27-6.782-13.51-13.536-0.27-7.632,8.32-7.808,13.51-6.611a28.937,28.937,0,0,1,8.68,3.579c-0.17-1.139-.28-2.21-0.33-3.136a32.471,32.471,0,0,1,5.89-20.882,3.5,3.5,0,0,1,4.98-.481c10.81,8.339,11.92,26.006,2.67,35.545a291.964,291.964,0,0,1,12.7,54.08c4.38-11.353,10.66-22.925,23.26-22.105,1.85,0.122,3.08,2.321,2.84,4.056-2.08,14.8-10.95,29.319-24.16,35.7a333.625,333.625,0,0,1,.53,45.717c8.43-11.429,26.59-29.549,31.15-17.185,2.5,6.783-4.49,13.372-8.62,17.128-6.68,6.083-14.74,10.782-23.49,12.535a364.444,364.444,0,0,1-9.22,54.127c9.3-10.917,27.5-28.13,31.41-16.307,2.25,6.818-6.64,14.037-10.78,17.649a56.419,56.419,0,0,1-24.28,12.336,363.626,363.626,0,0,1-31.94,76.544,60.342,60.342,0,0,1,18.24-7.945c5.78-1.467,16.88-3.133,17.29,6.191,0.35,8.093-10.13,12.327-15.98,14.574-9.03,3.466-19.22,4.888-28.73,2.646-2.32,3.662-4.68,7.281-7.12,10.827q1.335,39.71-.21,79.394c1.78-5.7,5.2-11.028,10.2-13.239,5.34-2.367,13.12-.822,16.51,4.447,4.04,6.291-.26,12.8-4.8,17.134a39.637,39.637,0,0,1-22.82,10.985c-1.28,23.073-3.37,46.05-6.07,68.912,0.17,0.406.33,0.83,0.49,1.243,4.24-7.342,27.75-40.564,37.17-24.888,4.03,6.7-3.98,12.964-8.2,16.656a72.3,72.3,0,0,1-29.96,15.661,2.621,2.621,0,0,1-.54.033c-1.91,15.2-4.18,30.333-6.71,45.39,10.73-11.95,31.04-28.24,34.18-11.458,1.5,7.982-7,16.24-12.39,20.385a37.244,37.244,0,0,1-24.73,7.829q-8.31,45.09-20.35,88.939c-19.49,70.563-43,151.963-95.41,203.823C1258.42,1187.79,1253.15,1183.67,1256.15,1180.08Zm23.82-587.158c1.43-2.017,10.11-15.9,2.73-15.907-3.44,0-6.82,10.888-7.41,13.55a31.235,31.235,0,0,0-.49,8.376A43.7,43.7,0,0,0,1279.97,592.922Zm-10.68,9.868a26.645,26.645,0,0,1-.7-7.168,56.514,56.514,0,0,0-2.23-5.558c-0.42-.906-3.23-7.171-4.62-7.975l-8.62.476a21.894,21.894,0,0,0,1.55,3.665C1258.18,593.626,1263.41,598.184,1269.29,602.79Zm39.36,29.422c-12.03,4.391-12.11,19.523-12.53,31.23C1305.96,656.49,1311.56,644.433,1308.65,632.212Zm-33.07,26.532c-2.82-1.3-6.81-3.387-9.91-3.071-0.82-.108-1.63-0.218-2.45-0.325q-7.515,4.8-1.62,7.178c6.56,4.226,16.26,4.123,24.66,3.21A44.321,44.321,0,0,0,1275.58,658.744Zm67.13,31.8c-0.4-2.521-1.78-7.456-4.49-8.48-7.93-2.994-7.06,8.711-7.07,12.142-0.02,6.72,1.59,13.312,1.54,20a2.236,2.236,0,0,1-1.17,1.847c0.17,0.259.36,0.512,0.53,0.773C1338.31,709.61,1344.3,700.369,1342.71,690.545Zm-20.36,24.335a44.439,44.439,0,0,0-7.6-3.314c-2.3-.76-13.49-4.189-15.51-2-5.99,6.511,8.79,8.879,10.98,9.107,4.86,0.5,9.08-.807,13.77-1.353C1323.44,716.5,1322.9,715.691,1322.35,714.88Zm-17.24-468.671a65.008,65.008,0,0,0-.28-7.768c-0.13-1.288-.31-2.576-0.51-3.855-0.41-2.5.33-5.278-2.88-4.687-2.69.5-2.09,1.536-2.11,4.174-0.02,1.355.07,2.72,0.17,4.072a73.244,73.244,0,0,0,1,8.085,78.917,78.917,0,0,0,3.29,11.646A67.669,67.669,0,0,0,1305.11,246.209Zm-15.7,5.52a38.892,38.892,0,0,0-6.67-3.673,27.876,27.876,0,0,0-4.5-1.687q-6.33,3.543-2.6,6.176c2.08,3.652,10.68,5.911,14.3,6.813a58.872,58.872,0,0,0,8.44,1.146A40.083,40.083,0,0,0,1289.41,251.729Zm50.15,54.774c1.99-3.8,6.95-15.045,2.87-18.948-3.91-3.751-9.11,11.545-10.1,15.052-1.66,5.916-1.48,11.761-2.15,17.712C1333.45,315.839,1336.96,311.459,1339.56,306.5Zm-27.69,2.742a50.634,50.634,0,0,0-7.88-4.772,26.233,26.233,0,0,0-2.6-1.189q-4.845-2.837-2.94,7.46c2.01,3.191,8.94,5.148,12.25,6.1a39.546,39.546,0,0,0,10.69,1.446A59.192,59.192,0,0,0,1311.87,309.245Zm54.27,73.214c2.94-4.416,11.04-18.345,6.07-22.669-3.32-2.884-5.1,2.884-7,6.065a71.136,71.136,0,0,0-4.96,9.954c-2.45,6.1-3.27,12.554-5.25,18.706A55.477,55.477,0,0,0,1366.14,382.459Zm-19.33,14.482a70.89,70.89,0,0,0-10.19-13.1,59.7,59.7,0,0,0-5.47-4.867c-3.55-2.781-5.77-5.447-9.21-1.732-3.35,3.614-.64,4.5,2.24,7.225a46.121,46.121,0,0,0,7.92,6.011c4.69,2.8,10.01,3.758,14.68,6.439A0.232,0.232,0,0,0,1346.81,396.941Zm34.12,58.469c2.76-3.6,9.36-13.756,8.02-18.794,0.7-1.662,0-2.648-2.13-2.959q-2.91-3.483-4.31,1.2c-2.31,2.016-4.03,6.585-5.32,9.361-2.68,5.788-4.08,11.817-5.6,17.974,0.13,0.583.25,1.166,0.37,1.75A41.885,41.885,0,0,0,1380.93,455.41Zm-16.67,11.325c-5.73-5.826-24.99-23.783-26.01-13.4-0.37,3.771,11.29,10.89,13.87,12.224,4.12,2.137,8.71,2.651,12.82,4.554C1364.71,468.984,1364.48,467.86,1364.26,466.735Zm35.8,79.276c2.34-2.5,14.2-16.817,7.6-20.008-10.09-4.872-15.66,22.108-19.22,29.359A61.426,61.426,0,0,0,1400.06,546.011Zm-21.67,7.15c-0.05-.35-0.09-0.7-0.14-1.051-3.23-6.632-7.82-12.746-13.86-16.614-3.77-2.414-6.21-2.351-3.97,2.93,0.97,2.311,3.47,4.641,5.23,6.354A45.033,45.033,0,0,0,1378.39,553.161Zm60.98-203.968a20.772,20.772,0,0,0-1.46-23.267,25.532,25.532,0,0,0-.19,21.649c0.29,0.624.59,1.165,0.86,1.671A2.782,2.782,0,0,1,1439.37,349.193Zm-8.2,1.069a23.26,23.26,0,0,0-6.32-4.318c-2.54-1.161-16.14-4.311-9.77,1.91a20.487,20.487,0,0,0,11.22,5.216,20.876,20.876,0,0,0,6.33-.223A16.419,16.419,0,0,1,1431.17,350.262Zm42.05,41.877c-9.59,2.468-11.05,18.427-17.04,26.262a1.45,1.45,0,0,0,.02.206C1464.52,411.568,1470.46,403.287,1473.22,392.139Zm-41.12,17.844a168.686,168.686,0,0,0,15.61,11.39c-0.1-1.131-.21-2.26-0.32-3.392-1.97-3.054-3.99-6.07-6.2-8.95-2.94-3.857-6.97-10.2-11.36-12.315-5.38-2.585-7.08,3.05-4.36,7.04C1427.04,406.05,1429.99,408.234,1432.1,409.983Zm35.37,61.618a58.526,58.526,0,0,0,6.52-5.021c0.16-.148,6.92-6.279,6.82-7.485-0.33-3.943-13.67,8.714-14.33,9.4-2.15,2.242-4.04,4.719-6.05,7.065A61.026,61.026,0,0,0,1467.47,471.6Zm-20.04,5.2a65.221,65.221,0,0,0-4.23-8.749c-1.8-3.083-7.26-12.9-10.52-13.52-8.5-1.608,3.9,12.088,5.72,14.037A87.8,87.8,0,0,0,1447.43,476.8Zm21.16,51.329c1.26-2.485,2.89-3.334-1.5-.96a42.473,42.473,0,0,0-6.52,4.909c-3.95,3.283-7.19,7.077-10.61,10.768C1457.56,539.362,1465.37,534.461,1468.59,528.13Zm-28.98,9.324a97.345,97.345,0,0,0-4.87-10.806c-0.76-1.387-8.59-16.253-11.25-11.459-1.02,1.846,6.89,13.66,7.98,15.747,2.22,4.278,4.47,8.547,6.62,12.87C1438.62,541.7,1439.11,539.574,1439.61,537.454Zm-20.23,99.11c4.19-1.042,14.73-3.552,17.22-7.351q4.35-1.807-.31-4.075l-2.53.337c-3.53-.34-8.2,1.947-11.45,3.344-5.48,2.361-10.03,5.788-14.64,9.443A69.71,69.71,0,0,0,1419.38,636.564ZM1385.7,642.1c-0.05-1.168-.11-2.335-0.17-3.5-1.33-1.991-2.69-3.967-4.12-5.885-2.88-3.853-7.51-11.805-12.19-13.319-1.36-1.764-2.38-1.41-3.09,1.06q-3.255,2.281.2,4.608c1.02,2.742,4.47,5.314,6.42,7.22A68.9,68.9,0,0,0,1385.7,642.1Zm28.73,91.692c5-7.872-4.13-9.784-8.65-5.9-4.42,3.787-4.53,10.295-6.83,15.327a2.984,2.984,0,0,1-4.47,1.014q-0.09,1.69-.18,3.382C1401.95,744.932,1410.19,740.472,1414.43,733.8Zm-28.89,8.625q0.15-3.108.27-6.216a37.176,37.176,0,0,0-10.54-15.361c-2.61-2.259-7-7.423-7.47.149-0.16,2.548,3.19,7.642,4.26,9.279C1375.61,735.753,1380.18,739.247,1385.54,742.42Zm17.47,73.638c3.38-2.225,12.66-7.671,13.8-11.419,1.01-3.28.02-2.336-2.7-1.119-2.5,1.115-6.9,6.2-8.5,7.9-1.89,2.014-3.63,4.142-5.31,6.311C1401.21,817.18,1402.13,816.643,1403.01,816.058Zm-24.49,9.677c0.37-2.953.77-5.9,1.11-8.86,0.01-.051.01-0.1,0.02-0.154-1.29-1.849-2.62-3.666-4.05-5.411-2.86-3.514-10.99-13.858-15.95-13.98q-2.355,2-4.69,3.994,1.815,2.907,3.85,5.651a80.055,80.055,0,0,0,8.3,9.534A108.577,108.577,0,0,0,1378.52,825.735Zm-24.45,26.294c-0.72-.587-1.45-1.173-2.17-1.76q-4.68,4.561-1.06,8.182c0.97,2.694,4.29,5.691,6.07,7.752,4.21,4.858,9.14,8.794,13.64,13.253,0.1-.568.21-1.133,0.31-1.7C1367.75,867.7,1362.34,856.931,1354.07,852.029Zm52.18,16.915c2.93-10.473-11.26,1.452-13.88,3.727-5.05,4.378-8.96,10.028-14.11,14.185l-0.09.5C1388.49,885.676,1403.24,879.749,1406.25,868.944ZM688.047,93.328s-27.5-1.4-30.2-5.82a68.541,68.541,0,0,1-9.7-32.212,9.579,9.579,0,0,1,0-5.519s-2.109-6.121-1.1-10.135c0,0-2.952-4.014-1.518-11.239,0,0-4.049-10.637-1.181-13.547,0,0,1.434-9.433,24.46-2.007,0,0,15.773,4.415,32.557,21.776,0,0,19.231,18.866,29.353,41.846a4.577,4.577,0,0,1,3.626-2.709s0-2.509.506-3.111c0,0-3.795-9.734-8.687-15.554,0,0-1.856-3.412-14.592-19.267,0,0-.59-2.208,1.181-0.7,0,0,12.23,16.959,12.82,17.561,0,0,8.941,12.945,10.206,18.063,0,0,.506,1.3,1.265.6,0,0,2.868-8.329,7.17-13.046,0,0,11.3-12.744,11.724-14.049,0,0,5.314-7.426,5.82-7.125,0,0,1.855.2-1.181,2.81,0,0-8.519,10.738-10.375,12.343,0,0-11.639,13.447-12.4,18.766,0,0,1.18-.1,1.1.7l0.084,2.81s1.94-.5,2.278.7c0,0,14.76-25.188,18.387-27.7,0,0,20.918-22.98,32.642-27.9,0,0,27.327-14.35,37.112-1.4,0,0,2.193,3.211-1.856,12.945,0,0,1.6,7.225-1.6,11.239,0,0,.844,5.82-1.855,10.135,0,0,.506,18.164-5.314,26.392,0,0-1.012,8.229-8.266,12.343,0,0-5.061,2.509-20.5,3.312,0,0,12.483,7.626,16.532,15.755,0,0,5.229,7.827,4.892,14.35,0,0,2.362,8.229-.337,14.45,0,0-.085,9.634-4.639,13.849,0,0-.591,12.945-9.531,17.561a18.462,18.462,0,0,1-14.929,11.54s-9.363,5.219-13.5,4.115c0,0-7.844,1.405-9.953-2.911,0,0-10.627-14.249-11.217-27.5,0,0-4.133-35.524-6.073-36.528,0,0-.759-2.007-1.1-0.7,0,0-2.952,12.242-3.542,17.26,0,0-1.856,14.551-.844,19.669,0,0,1.181,1.906-1.265,8.83,0,0,.506,4.315-1.94,4.014a9.33,9.33,0,0,1-.59-4.014s-1.434-.6-1.012-8.63c0,0,1.518-14.751,2.7-15.153,0,0-.085-20.27-0.591-21.274,0,0-2.024-3.311-1.855,8.028,0,0-4.133,31.209-7.17,36.227,0,0-3.289,11.841-6.41,15.955,0,0-3.627,8.129-12.061,7.025,0,0-4.724,0-5.314-1.506,0,0-3.29.8-7.338-2.408,0,0-11.134-1.3-15.52-10.436,0,0-9.531-5.62-9.446-16.357,0,0-4.218-3.212-5.314-12.845,0,0-3.543-3.713-1.1-14.852,0,0,.338-10.236,9.278-22.278C670.84,105.872,676.238,97.844,688.047,93.328Zm-253.9,39.625s-17.922-.808-19.681-3.349a36.478,36.478,0,0,1-6.323-18.538,4.906,4.906,0,0,1,0-3.176s-1.374-3.523-.714-5.832c0,0-1.924-2.311-.99-6.468,0,0-2.639-6.121-.769-7.8,0,0,.934-5.428,15.942-1.155,0,0,10.281,2.541,21.221,12.531,0,0,12.534,10.857,19.131,24.081a2.907,2.907,0,0,1,2.364-1.559,4.155,4.155,0,0,1,.33-1.79,37.294,37.294,0,0,0-5.663-8.951s-1.209-1.964-9.51-11.088c0,0-.385-1.27.769-0.4,0,0,7.972,9.759,8.356,10.106,0,0,5.828,7.449,6.652,10.395,0,0,.33.75,0.825,0.346,0,0,1.869-4.793,4.673-7.507,0,0,7.367-7.334,7.642-8.085,0,0,3.463-4.273,3.793-4.1,0,0,1.209.115-.77,1.617,0,0-5.552,6.179-6.762,7.1,0,0-7.586,7.738-8.081,10.8,0,0,.77-0.058.715,0.4l0.055,1.617s1.264-.289,1.484.4c0,0,9.621-14.5,11.984-15.938,0,0,13.634-13.225,21.276-16.055,0,0,17.812-8.258,24.189-.808,0,0,1.429,1.848-1.21,7.45,0,0,1.045,4.158-1.044,6.467a8.8,8.8,0,0,1-1.21,5.833s0.33,10.453-3.463,15.188a10.132,10.132,0,0,1-5.388,7.1s-3.3,1.444-13.359,1.906c0,0,8.137,4.389,10.776,9.066,0,0,3.408,4.5,3.188,8.258,0,0,1.539,4.736-.22,8.316,0,0-.055,5.544-3.023,7.97,0,0-.385,7.449-6.213,10.106,0,0-2.034,5.6-9.73,6.641,0,0-6.1,3-8.8,2.367,0,0-5.113.809-6.487-1.674,0,0-6.927-8.2-7.312-15.823,0,0-2.694-20.444-3.958-21.021,0,0-.5-1.155-0.715-0.4,0,0-1.924,7.045-2.309,9.933,0,0-1.209,8.373-.55,11.318,0,0,.77,1.1-0.824,5.082,0,0,.33,2.483-1.265,2.31a4.819,4.819,0,0,1-.384-2.31s-0.935-.346-0.66-4.966c0,0,.989-8.489,1.759-8.72,0,0-.055-11.666-0.385-12.243,0,0-1.319-1.906-1.209,4.62,0,0-2.694,17.96-4.673,20.847,0,0-2.144,6.815-4.178,9.182a7.94,7.94,0,0,1-7.862,4.043s-3.078,0-3.463-.867a6.565,6.565,0,0,1-4.783-1.386s-7.257-.75-10.115-6c0,0-6.212-3.234-6.157-9.413,0,0-2.749-1.848-3.464-7.392,0,0-2.309-2.137-.715-8.547,0,0,.22-5.89,6.048-12.82C422.929,140.172,426.447,135.552,434.144,132.953Zm541.666,0s-17.922-.808-19.681-3.349a36.483,36.483,0,0,1-6.322-18.538,4.9,4.9,0,0,1,0-3.176s-1.374-3.523-.715-5.832c0,0-1.924-2.311-.989-6.468,0,0-2.639-6.121-.77-7.8,0,0,.935-5.428,15.943-1.155,0,0,10.28,2.541,21.22,12.531,0,0,12.535,10.857,19.134,24.081a2.9,2.9,0,0,1,2.36-1.559,4.155,4.155,0,0,1,.33-1.79s-2.47-5.6-5.66-8.951c0,0-1.21-1.964-9.512-11.088,0,0-.385-1.27.77-0.4,0,0,7.971,9.759,8.352,10.106,0,0,5.83,7.449,6.66,10.395,0,0,.33.75,0.82,0.346,0,0,1.87-4.793,4.67-7.507,0,0,7.37-7.334,7.65-8.085,0,0,3.46-4.273,3.79-4.1,0,0,1.21.115-.77,1.617,0,0-5.55,6.179-6.76,7.1,0,0-7.59,7.738-8.08,10.8,0,0,.77-0.058.71,0.4l0.06,1.617s1.26-.289,1.48.4c0,0,9.62-14.5,11.98-15.938,0,0,13.64-13.225,21.28-16.055,0,0,17.81-8.258,24.19-.808,0,0,1.43,1.848-1.21,7.45,0,0,1.04,4.158-1.05,6.467a8.831,8.831,0,0,1-1.2,5.833s0.32,10.453-3.47,15.188a10.131,10.131,0,0,1-5.39,7.1s-3.29,1.444-13.35,1.906c0,0,8.13,4.389,10.77,9.066,0,0,3.41,4.5,3.19,8.258,0,0,1.54,4.736-.22,8.316,0,0-.06,5.544-3.02,7.97,0,0-.39,7.449-6.22,10.106,0,0-2.03,5.6-9.73,6.641,0,0-6.1,3-8.79,2.367,0,0-5.12.809-6.49-1.674,0,0-6.93-8.2-7.31-15.823,0,0-2.7-20.444-3.96-21.021,0,0-.5-1.155-0.72-0.4,0,0-1.92,7.045-2.3,9.933,0,0-1.21,8.373-.55,11.318,0,0,.77,1.1-0.83,5.082,0,0,.33,2.483-1.26,2.31a4.8,4.8,0,0,1-.39-2.31s-0.93-.346-0.66-4.966c0,0,.99-8.489,1.76-8.72,0,0-.05-11.666-0.38-12.243,0,0-1.32-1.906-1.21,4.62,0,0-2.7,17.96-4.675,20.847,0,0-2.144,6.815-4.178,9.182a7.94,7.94,0,0,1-7.862,4.043s-3.078,0-3.463-.867A6.565,6.565,0,0,1,979,184.349s-7.257-.75-10.116-6c0,0-6.212-3.234-6.157-9.413,0,0-2.749-1.848-3.463-7.392,0,0-2.309-2.137-.715-8.547,0,0,.22-5.89,6.047-12.82C964.6,140.172,968.114,135.552,975.81,132.953Z"/>
</svg>
